<svg xmlns="http://www.w3.org/2000/svg" xmlns:xlink="http://www.w3.org/1999/xlink" width="48" zoomAndPan="magnify" viewBox="0 0 36 36.000001" height="48" preserveAspectRatio="xMidYMid meet" version="1.0"><defs><clipPath id="a521fdd98c"><path d="M 0.488281 0 L 35.511719 0 L 35.511719 35.027344 L 0.488281 35.027344 Z M 0.488281 0 " clip-rule="nonzero"/></clipPath><clipPath id="1a8db3956e"><path d="M 5.019531 0 L 31.289062 0 L 31.289062 35.027344 L 5.019531 35.027344 Z M 5.019531 0 " clip-rule="nonzero"/></clipPath><clipPath id="3a6810933f"><path d="M 5.019531 13 L 23 13 L 23 20 L 5.019531 20 Z M 5.019531 13 " clip-rule="nonzero"/></clipPath><clipPath id="d6cb1a43dc"><path d="M 5.019531 16 L 23 16 L 23 20 L 5.019531 20 Z M 5.019531 16 " clip-rule="nonzero"/></clipPath><clipPath id="f4718382d4"><path d="M 5.019531 0 L 31.289062 0 L 31.289062 35.027344 L 5.019531 35.027344 Z M 5.019531 0 " clip-rule="nonzero"/></clipPath></defs><g clip-path="url(#a521fdd98c)"><path fill="#ffffff" d="M 0.488281 0 L 35.511719 0 L 35.511719 35.027344 L 0.488281 35.027344 Z M 0.488281 0 " fill-opacity="1" fill-rule="nonzero"/><path fill="#ffffff" d="M 0.488281 0 L 35.511719 0 L 35.511719 35.027344 L 0.488281 35.027344 Z M 0.488281 0 " fill-opacity="1" fill-rule="nonzero"/></g><g clip-path="url(#1a8db3956e)"><path fill="#000096" d="M 5.628906 19.375 C 5.605469 19.410156 5.597656 19.457031 5.597656 19.503906 C 5.605469 20.746094 6.003906 21.992188 6.714844 23.019531 C 7.378906 23.976562 8.332031 24.753906 9.410156 25.222656 C 9.042969 27.886719 8.957031 30.597656 9.15625 33.28125 C 9.164062 33.375 9.214844 33.460938 9.292969 33.515625 C 10.761719 34.476562 12.535156 35.015625 14.183594 35.015625 C 14.476562 35.015625 14.769531 34.996094 15.050781 34.964844 C 15.65625 34.890625 16.207031 34.644531 16.738281 34.40625 C 16.832031 34.359375 16.925781 34.320312 17.019531 34.277344 C 17.671875 33.992188 18.328125 33.6875 18.960938 33.367188 C 20.253906 32.714844 21.519531 31.980469 22.726562 31.191406 C 23.347656 30.78125 24.03125 30.285156 24.324219 29.539062 C 24.6875 28.617188 24.347656 27.640625 23.957031 26.9375 C 25.285156 24.613281 25.4375 21.683594 24.355469 19.0625 L 24.339844 19.023438 C 24.21875 18.722656 24.089844 18.414062 24.179688 18.179688 C 24.273438 17.929688 24.558594 17.816406 24.863281 17.699219 L 24.886719 17.691406 C 25.320312 17.523438 25.792969 17.21875 26.148438 16.871094 C 26.554688 16.46875 26.785156 15.957031 26.785156 15.472656 L 29.628906 14.59375 C 29.75 14.558594 29.835938 14.449219 29.84375 14.320312 L 30.449219 2.972656 L 30.863281 2.832031 C 30.964844 2.800781 31.039062 2.71875 31.066406 2.617188 C 31.113281 2.417969 31.28125 1.753906 31.28125 1.53125 C 31.28125 1.277344 31.097656 0.894531 31.042969 0.785156 C 30.992188 0.691406 30.894531 0.625 30.78125 0.621094 L 19.292969 0.0117188 C 19.269531 0.0117188 19.238281 0.0117188 19.214844 0.015625 L 15.316406 0.828125 C 15.152344 0.863281 15.042969 1.023438 15.078125 1.183594 C 15.171875 1.660156 15.277344 2.234375 15.277344 2.34375 C 15.277344 2.613281 15.496094 2.78125 15.90625 2.832031 L 16.496094 13.058594 C 13.804688 13.585938 10.425781 14.34375 7.476562 15.578125 C 6.890625 15.824219 6.324219 16.078125 5.863281 16.503906 C 5.300781 17.011719 5.019531 17.6875 5.097656 18.316406 C 5.148438 18.699219 5.335938 19.0625 5.628906 19.375 " fill-opacity="1" fill-rule="nonzero"/></g><path fill="#ffffff" d="M 30.621094 1.359375 C 30.648438 1.4375 30.664062 1.5 30.664062 1.53125 C 30.664062 1.613281 30.59375 1.953125 30.515625 2.28125 C 30.378906 2.335938 30.242188 2.390625 30.109375 2.441406 L 30.054688 2.460938 C 30.046875 2.460938 30.039062 2.46875 30.03125 2.472656 C 29.144531 2.808594 28.289062 3.066406 27.316406 3.074219 C 23.683594 3.101562 19.933594 3.128906 16.347656 2.28125 C 16.304688 2.253906 16.253906 2.242188 16.199219 2.242188 C 16.199219 2.242188 16.195312 2.242188 16.195312 2.242188 C 16.085938 2.214844 15.980469 2.1875 15.878906 2.164062 C 15.851562 1.964844 15.800781 1.671875 15.753906 1.433594 C 15.777344 1.445312 15.800781 1.457031 15.832031 1.457031 L 26.199219 1.980469 C 26.613281 2 27.054688 2.023438 27.511719 2.023438 C 28.53125 2.023438 29.617188 1.914062 30.558594 1.421875 C 30.585938 1.40625 30.605469 1.382812 30.621094 1.359375 " fill-opacity="1" fill-rule="nonzero"/><path fill="#ffffff" d="M 23.632812 0.851562 L 30.265625 1.199219 C 29.007812 1.796875 27.464844 1.71875 26.214844 1.65625 L 16.644531 1.175781 L 19.300781 0.621094 L 21.855469 0.757812 C 21.839844 0.796875 21.828125 0.84375 21.832031 0.886719 C 21.839844 0.984375 21.898438 1.160156 22.214844 1.234375 C 22.453125 1.289062 22.695312 1.320312 22.941406 1.320312 C 22.976562 1.320312 23.011719 1.320312 23.046875 1.320312 C 23.199219 1.3125 23.386719 1.289062 23.519531 1.152344 C 23.597656 1.070312 23.632812 0.960938 23.632812 0.851562 " fill-opacity="1" fill-rule="nonzero"/><path fill="#ffffff" d="M 29.835938 2.890625 L 29.238281 14.078125 L 26.457031 14.9375 L 27.417969 3.394531 C 28.28125 3.371094 29.054688 3.167969 29.835938 2.890625 " fill-opacity="1" fill-rule="nonzero"/><path fill="#ffffff" d="M 26.136719 15.722656 C 26.078125 15.96875 25.933594 16.222656 25.710938 16.4375 C 25.421875 16.726562 25.015625 16.988281 24.660156 17.125 L 24.640625 17.132812 C 24.4375 17.214844 24.203125 17.304688 24.003906 17.453125 C 23.484375 17.6875 23.035156 18.175781 22.757812 18.835938 C 22.59375 19.226562 22.492188 19.628906 22.398438 20.023438 C 22.324219 20.316406 22.25 20.625 22.148438 20.910156 C 21.574219 22.546875 20.027344 23.976562 18.109375 24.640625 L 18.039062 24.664062 C 15.542969 25.511719 12.886719 25.59375 10.566406 24.902344 C 9.859375 24.6875 9.183594 24.390625 8.554688 24.027344 C 8.039062 23.652344 7.582031 23.195312 7.222656 22.675781 C 6.640625 21.84375 6.296875 20.84375 6.226562 19.835938 C 6.246094 19.84375 6.261719 19.859375 6.28125 19.867188 C 6.855469 20.167969 7.503906 20.273438 8.070312 20.347656 C 9.15625 20.488281 10.253906 20.558594 11.359375 20.558594 C 13.9375 20.558594 16.523438 20.175781 18.980469 19.421875 C 19.910156 19.136719 20.972656 18.746094 21.804688 18.035156 C 23.21875 17.222656 24.671875 16.445312 26.136719 15.722656 " fill-opacity="1" fill-rule="nonzero"/><path fill="#ffffff" d="M 23.785156 19.289062 C 24.726562 21.574219 24.667969 24.101562 23.65625 26.1875 L 23.328125 26.710938 C 23.089844 26.992188 22.824219 27.253906 22.535156 27.488281 C 21.757812 28.125 20.832031 28.566406 19.929688 28.992188 C 19.800781 28.300781 19.707031 27.578125 19.722656 26.867188 C 20.828125 26.609375 21.8125 25.832031 22.304688 24.820312 C 22.792969 23.8125 22.792969 22.578125 22.316406 21.566406 C 22.398438 21.394531 22.472656 21.21875 22.535156 21.042969 C 22.640625 20.738281 22.71875 20.421875 22.796875 20.117188 C 22.894531 19.722656 22.984375 19.351562 23.136719 18.992188 C 23.242188 18.734375 23.378906 18.511719 23.535156 18.324219 C 23.527344 18.65625 23.65625 18.980469 23.769531 19.253906 L 23.785156 19.289062 " fill-opacity="1" fill-rule="nonzero"/><path fill="#ffffff" d="M 23.394531 27.1875 C 23.726562 27.777344 24.03125 28.597656 23.75 29.316406 C 23.523438 29.902344 22.949219 30.3125 22.386719 30.683594 C 21.199219 31.460938 19.953125 32.179688 18.683594 32.824219 C 18.054688 33.136719 17.414062 33.441406 16.769531 33.722656 C 16.675781 33.765625 16.578125 33.808594 16.480469 33.851562 C 15.992188 34.070312 15.484375 34.296875 14.976562 34.359375 C 13.285156 34.566406 11.347656 34.09375 9.757812 33.089844 C 9.574219 30.445312 9.671875 27.777344 10.039062 25.152344 C 10.175781 25.199219 10.3125 25.246094 10.449219 25.289062 C 11.527344 25.609375 12.675781 25.773438 13.847656 25.773438 C 15.28125 25.773438 16.75 25.527344 18.171875 25.046875 L 18.246094 25.023438 C 18.976562 24.769531 19.652344 24.410156 20.253906 23.976562 C 19.957031 24.53125 19.683594 25.058594 19.539062 25.742188 C 19.222656 27.25 19.5625 28.820312 19.867188 30.203125 C 19.894531 30.324219 19.925781 30.480469 20.035156 30.597656 C 20.144531 30.722656 20.3125 30.789062 20.496094 30.789062 C 20.523438 30.789062 20.546875 30.789062 20.570312 30.785156 C 20.746094 30.769531 20.902344 30.699219 21.039062 30.644531 C 21.636719 30.382812 22.210938 30.117188 22.671875 29.6875 C 23.207031 29.1875 23.480469 28.53125 23.398438 27.925781 C 23.390625 27.863281 23.378906 27.800781 23.367188 27.738281 C 23.335938 27.589844 23.308594 27.449219 23.339844 27.328125 C 23.347656 27.28125 23.371094 27.234375 23.394531 27.1875 " fill-opacity="1" fill-rule="nonzero"/><path fill="#ffffff" d="M 23.039062 15.394531 C 23.882812 15.566406 24.734375 15.652344 25.59375 15.65625 C 24.546875 16.179688 23.503906 16.726562 22.480469 17.300781 C 22.910156 16.699219 23.105469 16.042969 23.039062 15.394531 " fill-opacity="1" fill-rule="nonzero"/><path fill="#ffffff" d="M 23.300781 0.832031 C 23.308594 0.867188 23.304688 0.90625 23.28125 0.929688 C 23.234375 0.980469 23.125 0.988281 23.039062 0.996094 C 22.789062 1 22.535156 0.976562 22.289062 0.917969 C 22.207031 0.898438 22.164062 0.871094 22.160156 0.871094 C 22.160156 0.867188 22.167969 0.855469 22.183594 0.847656 C 22.21875 0.824219 22.273438 0.8125 22.324219 0.800781 C 22.339844 0.800781 22.355469 0.792969 22.367188 0.785156 L 23.300781 0.832031 " fill-opacity="1" fill-rule="nonzero"/><path fill="#ffffff" d="M 23.09375 27.96875 C 23.164062 28.472656 22.925781 29.03125 22.460938 29.46875 C 22.035156 29.859375 21.488281 30.117188 20.917969 30.363281 C 20.792969 30.417969 20.667969 30.472656 20.539062 30.484375 C 20.425781 30.496094 20.320312 30.460938 20.265625 30.398438 C 20.210938 30.339844 20.1875 30.234375 20.167969 30.140625 C 20.109375 29.867188 20.046875 29.585938 19.988281 29.304688 C 20.929688 28.859375 21.902344 28.398438 22.730469 27.722656 C 22.832031 27.644531 22.925781 27.558594 23.019531 27.472656 C 23.023438 27.582031 23.042969 27.691406 23.0625 27.796875 C 23.074219 27.855469 23.085938 27.910156 23.09375 27.96875 " fill-opacity="1" fill-rule="nonzero"/><g clip-path="url(#3a6810933f)"><path fill="#ffffff" d="M 22.394531 15.242188 C 22.402344 15.265625 22.402344 15.292969 22.410156 15.316406 C 22.300781 16.003906 21.882812 16.640625 21.394531 17.058594 C 20.609375 17.742188 19.570312 18.078125 18.566406 18.339844 C 15.371094 19.175781 11.980469 19.238281 8.792969 19.179688 C 8.117188 19.167969 7.429688 19.023438 6.808594 18.757812 C 6.371094 18.570312 6.085938 18.363281 5.910156 18.113281 C 5.835938 18.007812 5.785156 17.878906 5.757812 17.746094 C 5.84375 17.464844 6.023438 17.183594 6.277344 16.949219 C 6.667969 16.59375 7.183594 16.363281 7.714844 16.136719 C 10.722656 14.882812 14.195312 14.121094 16.902344 13.597656 L 22.222656 14.457031 L 22.394531 15.242188 " fill-opacity="1" fill-rule="nonzero"/></g><path fill="#ffffff" d="M 22.132812 21.917969 C 22.472656 22.804688 22.441406 23.835938 22.027344 24.6875 C 21.585938 25.589844 20.71875 26.292969 19.738281 26.546875 C 19.753906 26.300781 19.789062 26.050781 19.839844 25.800781 C 19.980469 25.132812 20.253906 24.625 20.570312 24.035156 C 20.660156 23.863281 20.757812 23.6875 20.851562 23.496094 C 20.851562 23.496094 20.851562 23.492188 20.855469 23.488281 C 21.371094 23.019531 21.808594 22.488281 22.132812 21.917969 " fill-opacity="1" fill-rule="nonzero"/><g clip-path="url(#d6cb1a43dc)"><path fill="#ffffff" d="M 21.597656 17.289062 C 21.789062 17.125 21.972656 16.925781 22.132812 16.707031 C 21.90625 17.101562 21.605469 17.398438 21.417969 17.558594 C 20.675781 18.207031 19.71875 18.558594 18.796875 18.839844 C 15.378906 19.886719 11.695312 20.199219 8.148438 19.742188 C 7.613281 19.675781 7.050781 19.585938 6.574219 19.328125 C 6.15625 19.109375 5.847656 18.761719 5.742188 18.394531 C 6.019531 18.722656 6.40625 18.917969 6.6875 19.035156 C 7.34375 19.316406 8.070312 19.472656 8.785156 19.484375 C 9.320312 19.492188 9.851562 19.5 10.394531 19.5 C 13.121094 19.5 15.949219 19.339844 18.644531 18.636719 C 19.683594 18.363281 20.765625 18.011719 21.597656 17.289062 " fill-opacity="1" fill-rule="nonzero"/></g><path fill="#ffffff" d="M 27.085938 3.398438 L 26.121094 15.039062 C 25.042969 15.082031 23.96875 14.984375 22.914062 14.746094 L 22.777344 14.125 C 22.75 14.003906 22.652344 13.910156 22.523438 13.890625 L 17.109375 13.015625 L 16.515625 2.652344 C 19.394531 3.304688 22.359375 3.40625 25.285156 3.40625 C 25.886719 3.40625 26.488281 3.402344 27.085938 3.398438 " fill-opacity="1" fill-rule="nonzero"/><g clip-path="url(#f4718382d4)"><path fill="#000096" d="M 22.132812 16.707031 C 21.972656 16.925781 21.789062 17.125 21.597656 17.289062 C 20.765625 18.011719 19.683594 18.363281 18.644531 18.636719 C 15.949219 19.339844 13.121094 19.5 10.394531 19.5 C 9.851562 19.5 9.320312 19.492188 8.785156 19.484375 C 8.070312 19.472656 7.34375 19.316406 6.6875 19.035156 C 6.40625 18.917969 6.019531 18.722656 5.742188 18.394531 C 5.847656 18.761719 6.15625 19.109375 6.574219 19.328125 C 7.050781 19.585938 7.613281 19.675781 8.148438 19.742188 C 11.695312 20.199219 15.378906 19.886719 18.796875 18.839844 C 19.71875 18.558594 20.675781 18.207031 21.417969 17.558594 C 21.605469 17.398438 21.90625 17.101562 22.132812 16.707031 Z M 22.027344 24.6875 C 22.441406 23.835938 22.472656 22.804688 22.132812 21.917969 C 21.808594 22.488281 21.371094 23.019531 20.855469 23.488281 C 20.851562 23.492188 20.851562 23.496094 20.851562 23.496094 C 20.757812 23.6875 20.660156 23.863281 20.570312 24.035156 C 20.253906 24.625 19.980469 25.132812 19.839844 25.800781 C 19.789062 26.050781 19.753906 26.300781 19.738281 26.546875 C 20.71875 26.292969 21.585938 25.589844 22.027344 24.6875 Z M 22.410156 15.316406 C 22.402344 15.292969 22.402344 15.265625 22.394531 15.242188 L 22.222656 14.457031 L 16.902344 13.597656 C 14.195312 14.121094 10.722656 14.882812 7.714844 16.136719 C 7.183594 16.363281 6.667969 16.59375 6.277344 16.949219 C 6.023438 17.183594 5.84375 17.464844 5.757812 17.746094 C 5.785156 17.878906 5.835938 18.007812 5.910156 18.113281 C 6.085938 18.363281 6.371094 18.570312 6.808594 18.757812 C 7.429688 19.023438 8.117188 19.167969 8.792969 19.179688 C 11.980469 19.238281 15.371094 19.175781 18.566406 18.339844 C 19.570312 18.078125 20.609375 17.742188 21.394531 17.058594 C 21.882812 16.640625 22.300781 16.003906 22.410156 15.316406 Z M 22.460938 29.46875 C 22.925781 29.03125 23.164062 28.472656 23.09375 27.96875 C 23.085938 27.910156 23.074219 27.855469 23.0625 27.796875 C 23.042969 27.691406 23.023438 27.582031 23.019531 27.472656 C 22.925781 27.558594 22.832031 27.644531 22.730469 27.722656 C 21.902344 28.398438 20.929688 28.859375 19.988281 29.304688 C 20.046875 29.585938 20.109375 29.867188 20.167969 30.140625 C 20.1875 30.234375 20.210938 30.339844 20.265625 30.398438 C 20.320312 30.460938 20.425781 30.496094 20.539062 30.484375 C 20.667969 30.472656 20.792969 30.417969 20.917969 30.363281 C 21.488281 30.117188 22.035156 29.859375 22.460938 29.46875 Z M 23.28125 0.929688 C 23.304688 0.90625 23.308594 0.867188 23.300781 0.832031 L 22.367188 0.785156 C 22.355469 0.792969 22.339844 0.800781 22.324219 0.800781 C 22.273438 0.8125 22.21875 0.824219 22.183594 0.847656 C 22.167969 0.855469 22.160156 0.867188 22.160156 0.871094 C 22.164062 0.871094 22.207031 0.898438 22.289062 0.917969 C 22.535156 0.976562 22.789062 1 23.039062 0.996094 C 23.125 0.988281 23.234375 0.980469 23.28125 0.929688 Z M 25.59375 15.65625 C 24.734375 15.652344 23.882812 15.566406 23.039062 15.394531 C 23.105469 16.042969 22.910156 16.699219 22.480469 17.300781 C 23.503906 16.726562 24.546875 16.179688 25.59375 15.65625 Z M 23.75 29.316406 C 24.03125 28.597656 23.726562 27.777344 23.394531 27.1875 C 23.371094 27.234375 23.347656 27.28125 23.339844 27.328125 C 23.308594 27.449219 23.335938 27.589844 23.367188 27.738281 C 23.378906 27.800781 23.390625 27.863281 23.398438 27.925781 C 23.480469 28.53125 23.207031 29.1875 22.671875 29.6875 C 22.210938 30.117188 21.636719 30.382812 21.039062 30.644531 C 20.902344 30.699219 20.746094 30.769531 20.570312 30.785156 C 20.546875 30.789062 20.523438 30.789062 20.496094 30.789062 C 20.3125 30.789062 20.144531 30.722656 20.035156 30.597656 C 19.925781 30.480469 19.894531 30.324219 19.867188 30.203125 C 19.5625 28.820312 19.222656 27.25 19.539062 25.742188 C 19.683594 25.058594 19.957031 24.53125 20.253906 23.976562 C 19.652344 24.410156 18.976562 24.769531 18.246094 25.023438 L 18.171875 25.046875 C 16.75 25.527344 15.28125 25.773438 13.847656 25.773438 C 12.675781 25.773438 11.527344 25.609375 10.449219 25.289062 C 10.3125 25.246094 10.175781 25.199219 10.039062 25.152344 C 9.671875 27.777344 9.574219 30.445312 9.757812 33.089844 C 11.347656 34.09375 13.285156 34.566406 14.976562 34.359375 C 15.484375 34.296875 15.992188 34.070312 16.480469 33.851562 C 16.578125 33.808594 16.675781 33.765625 16.769531 33.722656 C 17.414062 33.441406 18.054688 33.136719 18.683594 32.824219 C 19.953125 32.179688 21.199219 31.460938 22.386719 30.683594 C 22.949219 30.3125 23.523438 29.902344 23.75 29.316406 Z M 23.65625 26.1875 C 24.667969 24.101562 24.726562 21.574219 23.785156 19.289062 L 23.769531 19.253906 C 23.65625 18.980469 23.527344 18.65625 23.535156 18.324219 C 23.378906 18.511719 23.242188 18.734375 23.136719 18.992188 C 22.984375 19.351562 22.894531 19.722656 22.796875 20.117188 C 22.71875 20.421875 22.640625 20.738281 22.535156 21.042969 C 22.472656 21.21875 22.398438 21.394531 22.316406 21.566406 C 22.792969 22.578125 22.792969 23.8125 22.304688 24.820312 C 21.8125 25.832031 20.828125 26.609375 19.722656 26.867188 C 19.707031 27.578125 19.800781 28.300781 19.929688 28.992188 C 20.832031 28.566406 21.757812 28.125 22.535156 27.488281 C 22.824219 27.253906 23.089844 26.992188 23.328125 26.710938 Z M 25.710938 16.4375 C 25.933594 16.222656 26.078125 15.96875 26.136719 15.722656 C 24.671875 16.445312 23.21875 17.222656 21.804688 18.035156 C 20.972656 18.746094 19.910156 19.136719 18.980469 19.421875 C 16.523438 20.175781 13.9375 20.558594 11.359375 20.558594 C 10.253906 20.558594 9.15625 20.488281 8.070312 20.347656 C 7.503906 20.273438 6.855469 20.167969 6.28125 19.867188 C 6.261719 19.859375 6.246094 19.84375 6.226562 19.835938 C 6.296875 20.84375 6.640625 21.84375 7.222656 22.675781 C 7.582031 23.195312 8.039062 23.652344 8.554688 24.027344 C 9.183594 24.390625 9.859375 24.6875 10.566406 24.902344 C 12.886719 25.59375 15.542969 25.511719 18.039062 24.664062 L 18.109375 24.640625 C 20.027344 23.976562 21.574219 22.546875 22.148438 20.910156 C 22.25 20.625 22.324219 20.316406 22.398438 20.023438 C 22.492188 19.628906 22.59375 19.226562 22.757812 18.835938 C 23.035156 18.175781 23.484375 17.6875 24.003906 17.453125 C 24.203125 17.304688 24.4375 17.214844 24.640625 17.132812 L 24.660156 17.125 C 25.015625 16.988281 25.421875 16.726562 25.710938 16.4375 Z M 26.121094 15.039062 L 27.085938 3.398438 C 26.488281 3.402344 25.886719 3.40625 25.285156 3.40625 C 22.359375 3.40625 19.394531 3.304688 16.515625 2.652344 L 17.109375 13.015625 L 22.523438 13.890625 C 22.652344 13.910156 22.75 14.003906 22.777344 14.125 L 22.914062 14.746094 C 23.96875 14.984375 25.042969 15.082031 26.121094 15.039062 Z M 29.238281 14.078125 L 29.835938 2.890625 C 29.054688 3.167969 28.28125 3.371094 27.417969 3.394531 L 26.457031 14.9375 Z M 30.265625 1.199219 L 23.632812 0.851562 C 23.632812 0.960938 23.597656 1.070312 23.519531 1.152344 C 23.386719 1.289062 23.199219 1.3125 23.046875 1.320312 C 23.011719 1.320312 22.976562 1.320312 22.941406 1.320312 C 22.695312 1.320312 22.453125 1.289062 22.214844 1.234375 C 21.898438 1.160156 21.839844 0.984375 21.832031 0.886719 C 21.828125 0.84375 21.839844 0.796875 21.855469 0.757812 L 19.300781 0.621094 L 16.644531 1.175781 L 26.214844 1.65625 C 27.464844 1.71875 29.007812 1.796875 30.265625 1.199219 Z M 30.664062 1.53125 C 30.664062 1.5 30.648438 1.4375 30.621094 1.359375 C 30.605469 1.382812 30.585938 1.40625 30.558594 1.421875 C 29.617188 1.914062 28.53125 2.023438 27.511719 2.023438 C 27.054688 2.023438 26.613281 2 26.199219 1.980469 L 15.832031 1.457031 C 15.800781 1.457031 15.777344 1.445312 15.753906 1.433594 C 15.800781 1.671875 15.851562 1.964844 15.878906 2.164062 C 15.980469 2.1875 16.085938 2.214844 16.195312 2.242188 C 16.195312 2.242188 16.199219 2.242188 16.199219 2.242188 C 16.253906 2.242188 16.304688 2.253906 16.347656 2.28125 C 19.933594 3.128906 23.683594 3.101562 27.316406 3.074219 C 28.289062 3.066406 29.144531 2.808594 30.03125 2.472656 C 30.039062 2.46875 30.046875 2.460938 30.054688 2.460938 L 30.109375 2.441406 C 30.242188 2.390625 30.378906 2.335938 30.515625 2.28125 C 30.59375 1.953125 30.664062 1.613281 30.664062 1.53125 Z M 31.28125 1.53125 C 31.28125 1.753906 31.113281 2.417969 31.066406 2.617188 C 31.039062 2.71875 30.964844 2.800781 30.863281 2.832031 L 30.449219 2.972656 L 29.84375 14.320312 C 29.835938 14.449219 29.75 14.558594 29.628906 14.59375 L 26.785156 15.472656 C 26.785156 15.957031 26.554688 16.46875 26.148438 16.871094 C 25.792969 17.21875 25.320312 17.523438 24.886719 17.691406 L 24.863281 17.699219 C 24.558594 17.816406 24.273438 17.929688 24.179688 18.179688 C 24.089844 18.414062 24.21875 18.722656 24.339844 19.023438 L 24.355469 19.0625 C 25.4375 21.683594 25.285156 24.613281 23.957031 26.9375 C 24.347656 27.640625 24.6875 28.617188 24.324219 29.539062 C 24.03125 30.285156 23.347656 30.78125 22.726562 31.191406 C 21.519531 31.980469 20.253906 32.714844 18.960938 33.367188 C 18.328125 33.6875 17.671875 33.992188 17.019531 34.277344 C 16.925781 34.320312 16.832031 34.359375 16.738281 34.40625 C 16.207031 34.644531 15.65625 34.890625 15.050781 34.964844 C 14.769531 34.996094 14.476562 35.015625 14.183594 35.015625 C 12.535156 35.015625 10.761719 34.476562 9.292969 33.515625 C 9.214844 33.460938 9.164062 33.375 9.15625 33.28125 C 8.957031 30.597656 9.042969 27.886719 9.410156 25.222656 C 8.332031 24.753906 7.378906 23.976562 6.714844 23.019531 C 6.003906 21.992188 5.605469 20.746094 5.597656 19.503906 C 5.597656 19.457031 5.605469 19.410156 5.628906 19.375 C 5.335938 19.0625 5.148438 18.699219 5.097656 18.316406 C 5.019531 17.6875 5.300781 17.011719 5.863281 16.503906 C 6.324219 16.078125 6.890625 15.824219 7.476562 15.578125 C 10.425781 14.34375 13.804688 13.585938 16.496094 13.058594 L 15.90625 2.832031 C 15.496094 2.78125 15.277344 2.613281 15.277344 2.34375 C 15.277344 2.234375 15.171875 1.660156 15.078125 1.183594 C 15.042969 1.023438 15.152344 0.863281 15.316406 0.828125 L 19.214844 0.015625 C 19.238281 0.0117188 19.269531 0.0117188 19.292969 0.0117188 L 30.78125 0.621094 C 30.894531 0.625 30.992188 0.691406 31.042969 0.785156 C 31.097656 0.894531 31.28125 1.277344 31.28125 1.53125 " fill-opacity="1" fill-rule="nonzero"/></g></svg>